<?xml version="1.0" encoding="UTF-8" standalone="no"?>
<!DOCTYPE svg PUBLIC "-//W3C//DTD SVG 1.1//EN"
 "http://www.w3.org/Graphics/SVG/1.1/DTD/svg11.dtd">
<!-- Generated by graphviz version 8.1.0 (20230707.0739)
 -->
<!-- Title: G Pages: 1 -->
<svg width="706pt" height="1268pt"
 viewBox="0.00 0.00 706.36 1268.00" xmlns="http://www.w3.org/2000/svg" xmlns:xlink="http://www.w3.org/1999/xlink">
<g id="graph0" class="graph" transform="scale(1 1) rotate(0) translate(4 1264)">
<title>G</title>
<polygon fill="white" stroke="none" points="-4,4 -4,-1264 702.36,-1264 702.36,4 -4,4"/>
<!-- START -->
<g id="node1" class="node">
<title>START</title>
<g id="a_node1"><a xlink:title="START">
<ellipse fill="#4051b5" stroke="#2f3c86" cx="145.25" cy="-1242" rx="41.08" ry="18"/>
<text text-anchor="middle" x="145.25" y="-1236.58" font-family="Times New Roman,serif" font-size="14.00" fill="#ffffff">START</text>
</a>
</g>
</g>
<!-- MISSING_VALUE -->
<g id="node2" class="node">
<title>MISSING_VALUE</title>
<g id="a_node2"><a xlink:title="Response is missing value when answer has value">
<polygon fill="#e5f8fb" stroke="#00b8d4" points="290.5,-1188 0,-1188 0,-1152 290.5,-1152 290.5,-1188"/>
<text text-anchor="middle" x="145.25" y="-1164.58" font-family="Times New Roman,serif" font-size="14.00" fill="#212121">not(has(value(response))) and has(value(answer))</text>
</a>
</g>
</g>
<!-- START&#45;&gt;MISSING_VALUE -->
<g id="edge1" class="edge">
<title>START&#45;&gt;MISSING_VALUE</title>
<path fill="none" stroke="black" d="M145.25,-1223.7C145.25,-1216.24 145.25,-1207.32 145.25,-1198.97"/>
<polygon fill="black" stroke="black" points="148.75,-1199.1 145.25,-1189.1 141.75,-1199.1 148.75,-1199.1"/>
</g>
<!-- RESULT_NODE_0 -->
<g id="node3" class="node">
<title>RESULT_NODE_0</title>
<g id="a_node3"><a xlink:title="Response is INCORRECT&#10; + The response is missing a value.">
<ellipse fill="#c5cae9" stroke="#212121" cx="54.25" cy="-1026" rx="28.11" ry="18"/>
<text text-anchor="middle" x="54.25" y="-1020.58" font-family="Times New Roman,serif" font-size="14.00" fill="#212121">True</text>
</a>
</g>
</g>
<!-- MISSING_VALUE&#45;&gt;RESULT_NODE_0 -->
<g id="edge2" class="edge">
<title>MISSING_VALUE:s&#45;&gt;RESULT_NODE_0:n</title>
<path fill="none" stroke="black" d="M145.25,-1152C145.25,-1089.23 54.25,-1106.77 54.25,-1044"/>
</g>
<!-- RESULT_NODE_1 -->
<g id="node4" class="node">
<title>RESULT_NODE_1</title>
<g id="a_node4"><a xlink:title="Response is CORRECT&#10; + No new feedback produced">
<ellipse fill="#c5cae9" stroke="#212121" cx="205.25" cy="-1098" rx="30.11" ry="18"/>
<text text-anchor="middle" x="205.25" y="-1092.58" font-family="Times New Roman,serif" font-size="14.00" fill="#212121">False</text>
</a>
</g>
</g>
<!-- MISSING_VALUE&#45;&gt;RESULT_NODE_1 -->
<g id="edge4" class="edge">
<title>MISSING_VALUE:s&#45;&gt;RESULT_NODE_1:n</title>
<path fill="none" stroke="black" d="M145.25,-1152C145.25,-1120.9 205.25,-1147.1 205.25,-1116"/>
</g>
<!-- END -->
<g id="node17" class="node">
<title>END</title>
<g id="a_node17"><a xlink:title="END">
<ellipse fill="#4051b5" stroke="#2f3c86" cx="233.25" cy="-18" rx="29.11" ry="18"/>
<text text-anchor="middle" x="233.25" y="-12.57" font-family="Times New Roman,serif" font-size="14.00" fill="#ffffff">END</text>
</a>
</g>
</g>
<!-- RESULT_NODE_0&#45;&gt;END -->
<g id="edge3" class="edge">
<title>RESULT_NODE_0:s&#45;&gt;END</title>
<path fill="none" stroke="black" d="M54.25,-1008C54.25,-952.44 54.25,-938.56 54.25,-883 54.25,-883 54.25,-883 54.25,-161 54.25,-88.82 144.69,-47.51 197,-29.65"/>
<polygon fill="black" stroke="black" points="197.81,-32.74 206.22,-26.29 195.63,-26.09 197.81,-32.74"/>
</g>
<!-- MISSING_UNIT -->
<g id="node5" class="node">
<title>MISSING_UNIT</title>
<g id="a_node5"><a xlink:title="Response is missing unit when answer has unit">
<polygon fill="#e5f8fb" stroke="#00b8d4" points="374.25,-1044 100.25,-1044 100.25,-1008 374.25,-1008 374.25,-1044"/>
<text text-anchor="middle" x="237.25" y="-1020.58" font-family="Times New Roman,serif" font-size="14.00" fill="#212121">not(has(unit(response))) and has(unit(answer))</text>
</a>
</g>
</g>
<!-- RESULT_NODE_1&#45;&gt;MISSING_UNIT -->
<g id="edge5" class="edge">
<title>RESULT_NODE_1:s&#45;&gt;MISSING_UNIT</title>
<path fill="none" stroke="black" d="M205.25,-1080C205.25,-1070.42 209.13,-1061.09 214.19,-1052.99"/>
<polygon fill="black" stroke="black" points="217.56,-1055.29 220.5,-1045.11 211.85,-1051.23 217.56,-1055.29"/>
</g>
<!-- RESULT_NODE_2 -->
<g id="node6" class="node">
<title>RESULT_NODE_2</title>
<g id="a_node6"><a xlink:title="Response is INCORRECT&#10; + The response is missing unit(s).">
<ellipse fill="#c5cae9" stroke="#212121" cx="110.25" cy="-882" rx="28.11" ry="18"/>
<text text-anchor="middle" x="110.25" y="-876.58" font-family="Times New Roman,serif" font-size="14.00" fill="#212121">True</text>
</a>
</g>
</g>
<!-- MISSING_UNIT&#45;&gt;RESULT_NODE_2 -->
<g id="edge6" class="edge">
<title>MISSING_UNIT:s&#45;&gt;RESULT_NODE_2:n</title>
<path fill="none" stroke="black" d="M237.25,-1008C237.25,-933.91 110.25,-974.09 110.25,-900"/>
</g>
<!-- RESULT_NODE_3 -->
<g id="node7" class="node">
<title>RESULT_NODE_3</title>
<g id="a_node7"><a xlink:title="Response is CORRECT&#10; + No new feedback produced">
<ellipse fill="#c5cae9" stroke="#212121" cx="269.25" cy="-954" rx="30.11" ry="18"/>
<text text-anchor="middle" x="269.25" y="-948.58" font-family="Times New Roman,serif" font-size="14.00" fill="#212121">False</text>
</a>
</g>
</g>
<!-- MISSING_UNIT&#45;&gt;RESULT_NODE_3 -->
<g id="edge8" class="edge">
<title>MISSING_UNIT:s&#45;&gt;RESULT_NODE_3:n</title>
<path fill="none" stroke="black" d="M237.25,-1008C237.25,-986.59 269.25,-993.41 269.25,-972"/>
</g>
<!-- RESULT_NODE_2&#45;&gt;END -->
<g id="edge7" class="edge">
<title>RESULT_NODE_2:s&#45;&gt;END</title>
<path fill="none" stroke="black" d="M110.25,-864C110.25,-808.3 101.25,-794.7 101.25,-739 101.25,-739 101.25,-739 101.25,-161 101.25,-102.35 162.4,-57.76 201.45,-35.26"/>
<polygon fill="black" stroke="black" points="202.83,-37.94 209.86,-30.02 199.42,-31.83 202.83,-37.94"/>
</g>
<!-- UNEXPECTED_VALUE -->
<g id="node8" class="node">
<title>UNEXPECTED_VALUE</title>
<g id="a_node8"><a xlink:title="Response has value when when answer has only unit">
<polygon fill="#e5f8fb" stroke="#00b8d4" points="446.5,-900 156,-900 156,-864 446.5,-864 446.5,-900"/>
<text text-anchor="middle" x="301.25" y="-876.58" font-family="Times New Roman,serif" font-size="14.00" fill="#212121">has(value(response)) and not(has(value(answer)))</text>
</a>
</g>
</g>
<!-- RESULT_NODE_3&#45;&gt;UNEXPECTED_VALUE -->
<g id="edge9" class="edge">
<title>RESULT_NODE_3:s&#45;&gt;UNEXPECTED_VALUE</title>
<path fill="none" stroke="black" d="M269.25,-936C269.25,-926.42 273.13,-917.09 278.19,-908.99"/>
<polygon fill="black" stroke="black" points="281.56,-911.29 284.5,-901.11 275.85,-907.23 281.56,-911.29"/>
</g>
<!-- RESULT_NODE_4 -->
<g id="node9" class="node">
<title>RESULT_NODE_4</title>
<g id="a_node9"><a xlink:title="Response is INCORRECT&#10; + The response is expected only have unit(s), no value.">
<ellipse fill="#c5cae9" stroke="#212121" cx="157.25" cy="-738" rx="28.11" ry="18"/>
<text text-anchor="middle" x="157.25" y="-732.58" font-family="Times New Roman,serif" font-size="14.00" fill="#212121">True</text>
</a>
</g>
</g>
<!-- UNEXPECTED_VALUE&#45;&gt;RESULT_NODE_4 -->
<g id="edge10" class="edge">
<title>UNEXPECTED_VALUE:s&#45;&gt;RESULT_NODE_4:n</title>
<path fill="none" stroke="black" d="M301.25,-864C301.25,-824 157.25,-796 157.25,-756"/>
</g>
<!-- RESULT_NODE_5 -->
<g id="node10" class="node">
<title>RESULT_NODE_5</title>
<g id="a_node10"><a xlink:title="Response is CORRECT&#10; + No new feedback produced">
<ellipse fill="#c5cae9" stroke="#212121" cx="320.25" cy="-810" rx="30.11" ry="18"/>
<text text-anchor="middle" x="320.25" y="-804.58" font-family="Times New Roman,serif" font-size="14.00" fill="#212121">False</text>
</a>
</g>
</g>
<!-- UNEXPECTED_VALUE&#45;&gt;RESULT_NODE_5 -->
<g id="edge12" class="edge">
<title>UNEXPECTED_VALUE:s&#45;&gt;RESULT_NODE_5:n</title>
<path fill="none" stroke="black" d="M301.25,-864C301.25,-845.91 320.25,-846.09 320.25,-828"/>
</g>
<!-- RESULT_NODE_4&#45;&gt;END -->
<g id="edge11" class="edge">
<title>RESULT_NODE_4:s&#45;&gt;END</title>
<path fill="none" stroke="black" d="M157.25,-720C157.25,-663.87 139.25,-651.13 139.25,-595 139.25,-595 139.25,-595 139.25,-161 139.25,-111.16 180,-65.39 207.84,-39.94"/>
<polygon fill="black" stroke="black" points="209.84,-42.96 215.01,-33.71 205.2,-37.72 209.84,-42.96"/>
</g>
<!-- UNEXPECTED_UNIT -->
<g id="node11" class="node">
<title>UNEXPECTED_UNIT</title>
<g id="a_node11"><a xlink:title="Response has unit when when answer has only value">
<polygon fill="#e5f8fb" stroke="#00b8d4" points="477.25,-756 203.25,-756 203.25,-720 477.25,-720 477.25,-756"/>
<text text-anchor="middle" x="340.25" y="-732.58" font-family="Times New Roman,serif" font-size="14.00" fill="#212121">has(unit(response)) and not(has(unit(answer)))</text>
</a>
</g>
</g>
<!-- RESULT_NODE_5&#45;&gt;UNEXPECTED_UNIT -->
<g id="edge13" class="edge">
<title>RESULT_NODE_5:s&#45;&gt;UNEXPECTED_UNIT</title>
<path fill="none" stroke="black" d="M320.25,-792C320.25,-783.25 322.67,-774.17 325.82,-766.06"/>
<polygon fill="black" stroke="black" points="329.4,-767.62 330.25,-757.06 323,-764.79 329.4,-767.62"/>
</g>
<!-- RESULT_NODE_6 -->
<g id="node12" class="node">
<title>RESULT_NODE_6</title>
<g id="a_node12"><a xlink:title="Response is INCORRECT&#10; + The response is expected to be a value without unit(s).">
<ellipse fill="#c5cae9" stroke="#212121" cx="227.25" cy="-594" rx="28.11" ry="18"/>
<text text-anchor="middle" x="227.25" y="-588.58" font-family="Times New Roman,serif" font-size="14.00" fill="#212121">True</text>
</a>
</g>
</g>
<!-- UNEXPECTED_UNIT&#45;&gt;RESULT_NODE_6 -->
<g id="edge14" class="edge">
<title>UNEXPECTED_UNIT:s&#45;&gt;RESULT_NODE_6:n</title>
<path fill="none" stroke="black" d="M340.25,-720C340.25,-685.26 227.25,-646.74 227.25,-612"/>
</g>
<!-- RESULT_NODE_7 -->
<g id="node13" class="node">
<title>RESULT_NODE_7</title>
<g id="a_node13"><a xlink:title="Response is CORRECT&#10; + No new feedback produced">
<ellipse fill="#c5cae9" stroke="#212121" cx="359.25" cy="-666" rx="30.11" ry="18"/>
<text text-anchor="middle" x="359.25" y="-660.58" font-family="Times New Roman,serif" font-size="14.00" fill="#212121">False</text>
</a>
</g>
</g>
<!-- UNEXPECTED_UNIT&#45;&gt;RESULT_NODE_7 -->
<g id="edge16" class="edge">
<title>UNEXPECTED_UNIT:s&#45;&gt;RESULT_NODE_7:n</title>
<path fill="none" stroke="black" d="M340.25,-720C340.25,-701.91 359.25,-702.09 359.25,-684"/>
</g>
<!-- RESULT_NODE_6&#45;&gt;END -->
<g id="edge15" class="edge">
<title>RESULT_NODE_6:s&#45;&gt;END</title>
<path fill="none" stroke="black" d="M227.25,-576C227.25,-516.16 177.25,-510.84 177.25,-451 177.25,-451 177.25,-451 177.25,-161 177.25,-117.57 200.2,-71.56 216.71,-44.06"/>
<polygon fill="black" stroke="black" points="220.16,-46.15 222.45,-35.81 214.21,-42.46 220.16,-46.15"/>
</g>
<!-- DIMENSION_MATCH -->
<g id="node14" class="node">
<title>DIMENSION_MATCH</title>
<g id="a_node14"><a xlink:title="Dimensions match">
<polygon fill="#e5f8fb" stroke="#00b8d4" points="647.88,-612 302.62,-612 302.62,-576 647.88,-576 647.88,-612"/>
<text text-anchor="middle" x="475.25" y="-588.58" font-family="Times New Roman,serif" font-size="14.00" fill="#212121">dimension(QUANTITY) matches dimension(QUANTITY)</text>
</a>
</g>
</g>
<!-- RESULT_NODE_7&#45;&gt;DIMENSION_MATCH -->
<g id="edge17" class="edge">
<title>RESULT_NODE_7:s&#45;&gt;DIMENSION_MATCH</title>
<path fill="none" stroke="black" d="M359.25,-648C359.25,-635.46 364.93,-625.87 373.78,-618.54"/>
<polygon fill="black" stroke="black" points="375.44,-620.96 381.72,-612.43 371.49,-615.18 375.44,-620.96"/>
</g>
<!-- RESULT_NODE_8 -->
<g id="node15" class="node">
<title>RESULT_NODE_8</title>
<g id="a_node15"><a xlink:title="Response is CORRECT&#10; + No new feedback produced">
<ellipse fill="#c5cae9" stroke="#212121" cx="475.25" cy="-522" rx="28.11" ry="18"/>
<text text-anchor="middle" x="475.25" y="-516.58" font-family="Times New Roman,serif" font-size="14.00" fill="#212121">True</text>
</a>
</g>
</g>
<!-- DIMENSION_MATCH&#45;&gt;RESULT_NODE_8 -->
<g id="edge18" class="edge">
<title>DIMENSION_MATCH:s&#45;&gt;RESULT_NODE_8:n</title>
<path fill="none" stroke="black" d="M475.25,-576C475.25,-560 475.25,-556 475.25,-540"/>
</g>
<!-- RESULT_NODE_9 -->
<g id="node16" class="node">
<title>RESULT_NODE_9</title>
<g id="a_node16"><a xlink:title="Response is INCORRECT&#10; + Dimensions of $response$ does not match the dimensions of $answer$">
<ellipse fill="#c5cae9" stroke="#212121" cx="668.25" cy="-450" rx="30.11" ry="18"/>
<text text-anchor="middle" x="668.25" y="-444.57" font-family="Times New Roman,serif" font-size="14.00" fill="#212121">False</text>
</a>
</g>
</g>
<!-- DIMENSION_MATCH&#45;&gt;RESULT_NODE_9 -->
<g id="edge20" class="edge">
<title>DIMENSION_MATCH:s&#45;&gt;RESULT_NODE_9:n</title>
<path fill="none" stroke="black" d="M475.25,-576C475.25,-526.85 668.25,-517.15 668.25,-468"/>
</g>
<!-- QUANTITY_MATCH -->
<g id="node18" class="node">
<title>QUANTITY_MATCH</title>
<g id="a_node18"><a xlink:title="Quantities match">
<polygon fill="#e5f8fb" stroke="#00b8d4" points="581.88,-468 368.62,-468 368.62,-432 581.88,-432 581.88,-468"/>
<text text-anchor="middle" x="475.25" y="-444.57" font-family="Times New Roman,serif" font-size="14.00" fill="#212121">QUANTITY matches QUANTITY</text>
</a>
</g>
</g>
<!-- RESULT_NODE_8&#45;&gt;QUANTITY_MATCH -->
<g id="edge19" class="edge">
<title>RESULT_NODE_8:s&#45;&gt;QUANTITY_MATCH</title>
<path fill="none" stroke="black" d="M475.25,-504C475.25,-495.87 475.25,-487.04 475.25,-478.96"/>
<polygon fill="black" stroke="black" points="478.75,-479.19 475.25,-469.19 471.75,-479.19 478.75,-479.19"/>
</g>
<!-- RESULT_NODE_9&#45;&gt;END -->
<g id="edge21" class="edge">
<title>RESULT_NODE_9:s&#45;&gt;END</title>
<path fill="none" stroke="black" d="M668.25,-432C668.25,-375.67 689.25,-363.33 689.25,-307 689.25,-307 689.25,-307 689.25,-161 689.25,-74.12 383.71,-34.33 272.83,-22.75"/>
<polygon fill="black" stroke="black" points="273.42,-19.19 263.12,-21.65 272.71,-26.15 273.42,-19.19"/>
</g>
<!-- RESULT_NODE_10 -->
<g id="node19" class="node">
<title>RESULT_NODE_10</title>
<g id="a_node19"><a xlink:title="Response is CORRECT&#10; + $response$ matches $answer$">
<ellipse fill="#c5cae9" stroke="#212121" cx="453.25" cy="-378" rx="28.11" ry="18"/>
<text text-anchor="middle" x="453.25" y="-372.57" font-family="Times New Roman,serif" font-size="14.00" fill="#212121">True</text>
</a>
</g>
</g>
<!-- QUANTITY_MATCH&#45;&gt;RESULT_NODE_10 -->
<g id="edge22" class="edge">
<title>QUANTITY_MATCH:s&#45;&gt;RESULT_NODE_10:n</title>
<path fill="none" stroke="black" d="M475.25,-432C475.25,-413.25 453.25,-414.75 453.25,-396"/>
</g>
<!-- RESULT_NODE_11 -->
<g id="node20" class="node">
<title>RESULT_NODE_11</title>
<g id="a_node20"><a xlink:title="Response is INCORRECT&#10; + $response$ does not match $answer$">
<ellipse fill="#c5cae9" stroke="#212121" cx="631.25" cy="-306" rx="30.11" ry="18"/>
<text text-anchor="middle" x="631.25" y="-300.57" font-family="Times New Roman,serif" font-size="14.00" fill="#212121">False</text>
</a>
</g>
</g>
<!-- QUANTITY_MATCH&#45;&gt;RESULT_NODE_11 -->
<g id="edge24" class="edge">
<title>QUANTITY_MATCH:s&#45;&gt;RESULT_NODE_11:n</title>
<path fill="none" stroke="black" d="M475.25,-432C475.25,-347.67 631.25,-408.33 631.25,-324"/>
</g>
<!-- PREFIX_IS_LARGE -->
<g id="node21" class="node">
<title>PREFIX_IS_LARGE</title>
<g id="a_node21"><a xlink:title="The response prefix is much larger than the answer prefix">
<polygon fill="#e5f8fb" stroke="#00b8d4" points="583.5,-324 239,-324 239,-288 583.5,-288 583.5,-324"/>
<text text-anchor="middle" x="411.25" y="-300.57" font-family="Times New Roman,serif" font-size="14.00" fill="#212121">expanded_unit(response) &gt;= 1000*expanded_unit(answer)</text>
</a>
</g>
</g>
<!-- RESULT_NODE_10&#45;&gt;PREFIX_IS_LARGE -->
<g id="edge23" class="edge">
<title>RESULT_NODE_10:s&#45;&gt;PREFIX_IS_LARGE</title>
<path fill="none" stroke="black" d="M453.25,-360C453.25,-349.54 448.17,-339.95 441.54,-331.88"/>
<polygon fill="black" stroke="black" points="444.6,-329.97 435.22,-325.05 439.49,-334.75 444.6,-329.97"/>
</g>
<!-- RESULT_NODE_11&#45;&gt;END -->
<g id="edge25" class="edge">
<title>RESULT_NODE_11:s&#45;&gt;END</title>
<path fill="none" stroke="black" d="M631.25,-288C631.25,-224 668.38,-196.83 632.25,-144 590.7,-83.24 364.6,-40.31 272.41,-25.08"/>
<polygon fill="black" stroke="black" points="273.03,-21.47 262.6,-23.32 271.9,-28.38 273.03,-21.47"/>
</g>
<!-- RESULT_NODE_12 -->
<g id="node22" class="node">
<title>RESULT_NODE_12</title>
<g id="a_node22"><a xlink:title="Response is CORRECT&#10; ● $response$ matches $answer$&#10; + The quantity can be written with fewer digits by using a smaller prefix.">
<ellipse fill="#c5cae9" stroke="#212121" cx="233.25" cy="-162" rx="28.11" ry="18"/>
<text text-anchor="middle" x="233.25" y="-156.57" font-family="Times New Roman,serif" font-size="14.00" fill="#212121">True</text>
</a>
</g>
</g>
<!-- PREFIX_IS_LARGE&#45;&gt;RESULT_NODE_12 -->
<g id="edge26" class="edge">
<title>PREFIX_IS_LARGE:s&#45;&gt;RESULT_NODE_12:n</title>
<path fill="none" stroke="black" d="M411.25,-288C411.25,-241.73 233.25,-226.27 233.25,-180"/>
</g>
<!-- RESULT_NODE_13 -->
<g id="node23" class="node">
<title>RESULT_NODE_13</title>
<g id="a_node23"><a xlink:title="Response is CORRECT&#10; ● $response$ matches $answer$&#10; + No new feedback produced">
<ellipse fill="#c5cae9" stroke="#212121" cx="431.25" cy="-234" rx="30.11" ry="18"/>
<text text-anchor="middle" x="431.25" y="-228.57" font-family="Times New Roman,serif" font-size="14.00" fill="#212121">False</text>
</a>
</g>
</g>
<!-- PREFIX_IS_LARGE&#45;&gt;RESULT_NODE_13 -->
<g id="edge28" class="edge">
<title>PREFIX_IS_LARGE:s&#45;&gt;RESULT_NODE_13:n</title>
<path fill="none" stroke="black" d="M411.25,-288C411.25,-269.7 431.25,-270.3 431.25,-252"/>
</g>
<!-- RESULT_NODE_12&#45;&gt;END -->
<g id="edge27" class="edge">
<title>RESULT_NODE_12:s&#45;&gt;END</title>
<path fill="none" stroke="black" d="M233.25,-144C233.25,-110.69 233.25,-72.39 233.25,-47.05"/>
<polygon fill="black" stroke="black" points="236.75,-47.39 233.25,-37.39 229.75,-47.39 236.75,-47.39"/>
</g>
<!-- PREFIX_IS_SMALL -->
<g id="node24" class="node">
<title>PREFIX_IS_SMALL</title>
<g id="a_node24"><a xlink:title="The response prefix is much smaller than the answer prefix">
<polygon fill="#e5f8fb" stroke="#00b8d4" points="623.5,-180 279,-180 279,-144 623.5,-144 623.5,-180"/>
<text text-anchor="middle" x="451.25" y="-156.57" font-family="Times New Roman,serif" font-size="14.00" fill="#212121">expanded_unit(response)*1000 &lt;= expanded_unit(answer)</text>
</a>
</g>
</g>
<!-- RESULT_NODE_13&#45;&gt;PREFIX_IS_SMALL -->
<g id="edge29" class="edge">
<title>RESULT_NODE_13:s&#45;&gt;PREFIX_IS_SMALL</title>
<path fill="none" stroke="black" d="M431.25,-216C431.25,-207.25 433.67,-198.17 436.82,-190.06"/>
<polygon fill="black" stroke="black" points="440.4,-191.62 441.25,-181.06 434,-188.79 440.4,-191.62"/>
</g>
<!-- RESULT_NODE_14 -->
<g id="node25" class="node">
<title>RESULT_NODE_14</title>
<g id="a_node25"><a xlink:title="Response is CORRECT&#10; ● $response$ matches $answer$&#10; + The quantity can be written with fewer digits by using a larger prefix.">
<ellipse fill="#c5cae9" stroke="#212121" cx="311.25" cy="-90" rx="28.11" ry="18"/>
<text text-anchor="middle" x="311.25" y="-84.58" font-family="Times New Roman,serif" font-size="14.00" fill="#212121">True</text>
</a>
</g>
</g>
<!-- PREFIX_IS_SMALL&#45;&gt;RESULT_NODE_14 -->
<g id="edge30" class="edge">
<title>PREFIX_IS_SMALL:s&#45;&gt;RESULT_NODE_14:n</title>
<path fill="none" stroke="black" d="M451.25,-144C451.25,-79.75 311.25,-172.25 311.25,-108"/>
</g>
<!-- RESULT_NODE_15 -->
<g id="node26" class="node">
<title>RESULT_NODE_15</title>
<g id="a_node26"><a xlink:title="Response is CORRECT&#10; ● $response$ matches $answer$&#10; + No new feedback produced">
<ellipse fill="#c5cae9" stroke="#212121" cx="408.25" cy="-90" rx="30.11" ry="18"/>
<text text-anchor="middle" x="408.25" y="-84.58" font-family="Times New Roman,serif" font-size="14.00" fill="#212121">False</text>
</a>
</g>
</g>
<!-- PREFIX_IS_SMALL&#45;&gt;RESULT_NODE_15 -->
<g id="edge32" class="edge">
<title>PREFIX_IS_SMALL:s&#45;&gt;RESULT_NODE_15:n</title>
<path fill="none" stroke="black" d="M451.25,-144C451.25,-119.08 408.25,-132.92 408.25,-108"/>
</g>
<!-- RESULT_NODE_14&#45;&gt;END -->
<g id="edge31" class="edge">
<title>RESULT_NODE_14:s&#45;&gt;END</title>
<path fill="none" stroke="black" d="M311.25,-72C311.25,-50.39 290.51,-36.97 270.43,-29.05"/>
<polygon fill="black" stroke="black" points="271.69,-25.43 261.09,-25.39 269.35,-32.03 271.69,-25.43"/>
</g>
<!-- RESULT_NODE_15&#45;&gt;END -->
<g id="edge33" class="edge">
<title>RESULT_NODE_15:s&#45;&gt;END</title>
<path fill="none" stroke="black" d="M408.25,-72C408.25,-43.9 324.58,-29.32 272.95,-23"/>
<polygon fill="black" stroke="black" points="273.49,-19.42 263.15,-21.74 272.67,-26.37 273.49,-19.42"/>
</g>
</g>
</svg>
