<?xml version="1.0" encoding="UTF-8" standalone="no"?>
<!DOCTYPE svg PUBLIC "-//W3C//DTD SVG 1.1//EN"
 "http://www.w3.org/Graphics/SVG/1.1/DTD/svg11.dtd">
<!-- Generated by graphviz version 8.1.0 (20230707.0739)
 -->
<!-- Title: G Pages: 1 -->
<svg width="473pt" height="483pt"
 viewBox="0.00 0.00 473.38 482.75" xmlns="http://www.w3.org/2000/svg" xmlns:xlink="http://www.w3.org/1999/xlink">
<g id="graph0" class="graph" transform="scale(1 1) rotate(0) translate(4 478.75)">
<title>G</title>
<polygon fill="white" stroke="none" points="-4,4 -4,-478.75 469.38,-478.75 469.38,4 -4,4"/>
<!-- DIMENSION_MATCH -->
<g id="node1" class="node">
<title>DIMENSION_MATCH</title>
<g id="a_node1"><a xlink:title="Dimensions match">
<polygon fill="#ffffcc" stroke="black" points="465.38,-387 120.12,-387 120.12,-351 465.38,-351 465.38,-387"/>
<text text-anchor="middle" x="292.75" y="-363.57" font-family="Times New Roman,serif" font-size="14.00">dimension(QUANTITY) matches dimension(QUANTITY)</text>
</a>
</g>
</g>
<!-- QUANTITY_MATCH -->
<g id="node2" class="node">
<title>QUANTITY_MATCH</title>
<g id="a_node2"><a xlink:title="Quantities match">
<polygon fill="#ffffcc" stroke="black" points="332.38,-299.25 119.12,-299.25 119.12,-263.25 332.38,-263.25 332.38,-299.25"/>
<text text-anchor="middle" x="225.75" y="-275.82" font-family="Times New Roman,serif" font-size="14.00">QUANTITY matches QUANTITY</text>
</a>
</g>
</g>
<!-- DIMENSION_MATCH&#45;&gt;QUANTITY_MATCH -->
<g id="edge2" class="edge">
<title>DIMENSION_MATCH&#45;&gt;QUANTITY_MATCH</title>
<path fill="none" stroke="black" d="M279.19,-350.65C269.66,-338.44 256.73,-321.9 245.98,-308.14"/>
<polygon fill="black" stroke="black" points="248.2,-306.3 239.29,-300.58 242.69,-310.61 248.2,-306.3"/>
<text text-anchor="middle" x="278.88" y="-319.7" font-family="Times New Roman,serif" font-size="14.00">True</text>
</g>
<!-- END -->
<g id="node6" class="node">
<title>END</title>
<ellipse fill="none" stroke="black" cx="257.75" cy="-18" rx="29.11" ry="18"/>
<text text-anchor="middle" x="257.75" y="-12.57" font-family="Times New Roman,serif" font-size="14.00">END</text>
</g>
<!-- DIMENSION_MATCH&#45;&gt;END -->
<g id="edge3" class="edge">
<title>DIMENSION_MATCH&#45;&gt;END</title>
<path fill="none" stroke="black" d="M318.07,-350.73C337.4,-335.29 360.75,-310.75 360.75,-282.25 360.75,-282.25 360.75,-282.25 360.75,-104.75 360.75,-68.64 322.89,-44.8 293.08,-31.62"/>
<polygon fill="black" stroke="black" points="294.52,-28.01 283.95,-27.4 291.83,-34.47 294.52,-28.01"/>
<text text-anchor="middle" x="375.38" y="-188.07" font-family="Times New Roman,serif" font-size="14.00">False</text>
</g>
<!-- PREFIX_IS_LARGE -->
<g id="node3" class="node">
<title>PREFIX_IS_LARGE</title>
<g id="a_node3"><a xlink:title="The response prefix is much larger than the answer prefix">
<polygon fill="#ffffcc" stroke="black" points="286.5,-211.5 65,-211.5 65,-175.5 286.5,-175.5 286.5,-211.5"/>
<text text-anchor="middle" x="175.75" y="-188.07" font-family="Times New Roman,serif" font-size="14.00">unit(response) &gt;= 1000*unit(answer)</text>
</a>
</g>
</g>
<!-- QUANTITY_MATCH&#45;&gt;PREFIX_IS_LARGE -->
<g id="edge4" class="edge">
<title>QUANTITY_MATCH&#45;&gt;PREFIX_IS_LARGE</title>
<path fill="none" stroke="black" d="M215.63,-262.9C208.65,-250.93 199.24,-234.78 191.31,-221.18"/>
<polygon fill="black" stroke="black" points="193.91,-219.7 185.85,-212.83 187.87,-223.23 193.91,-219.7"/>
<text text-anchor="middle" x="218.88" y="-231.95" font-family="Times New Roman,serif" font-size="14.00">True</text>
</g>
<!-- QUANTITY_MATCH&#45;&gt;END -->
<g id="edge5" class="edge">
<title>QUANTITY_MATCH&#45;&gt;END</title>
<path fill="none" stroke="black" d="M251.92,-262.9C267.87,-250.66 286.85,-232.71 295.75,-211.5 319.42,-155.08 291.17,-83.07 272.2,-45.12"/>
<polygon fill="black" stroke="black" points="274.86,-43.63 267.15,-36.36 268.64,-46.85 274.86,-43.63"/>
<text text-anchor="middle" x="319.38" y="-144.2" font-family="Times New Roman,serif" font-size="14.00">False</text>
</g>
<!-- PREFIX_IS_SMALL -->
<g id="node4" class="node">
<title>PREFIX_IS_SMALL</title>
<g id="a_node4"><a xlink:title="The response prefix is much smaller than the answer prefix">
<polygon fill="#ffffcc" stroke="black" points="221.5,-123.75 0,-123.75 0,-87.75 221.5,-87.75 221.5,-123.75"/>
<text text-anchor="middle" x="110.75" y="-100.33" font-family="Times New Roman,serif" font-size="14.00">unit(response)*1000 &lt;= unit(answer)</text>
</a>
</g>
</g>
<!-- PREFIX_IS_LARGE&#45;&gt;PREFIX_IS_SMALL -->
<g id="edge6" class="edge">
<title>PREFIX_IS_LARGE&#45;&gt;PREFIX_IS_SMALL</title>
<path fill="none" stroke="black" d="M162.6,-175.15C153.35,-162.94 140.81,-146.4 130.38,-132.64"/>
<polygon fill="black" stroke="black" points="132.71,-130.93 123.88,-125.08 127.14,-135.16 132.71,-130.93"/>
<text text-anchor="middle" x="162.88" y="-144.2" font-family="Times New Roman,serif" font-size="14.00">True</text>
</g>
<!-- PREFIX_IS_LARGE&#45;&gt;END -->
<g id="edge7" class="edge">
<title>PREFIX_IS_LARGE&#45;&gt;END</title>
<path fill="none" stroke="black" d="M193.24,-175.01C205.41,-161.93 221.11,-143.03 230.75,-123.75 242.99,-99.26 250.05,-68.69 253.85,-46.91"/>
<polygon fill="black" stroke="black" points="257.46,-47.53 255.6,-37.1 250.55,-46.41 257.46,-47.53"/>
<text text-anchor="middle" x="259.38" y="-100.33" font-family="Times New Roman,serif" font-size="14.00">False</text>
</g>
<!-- PREFIX_IS_SMALL&#45;&gt;END -->
<g id="edge8" class="edge">
<title>PREFIX_IS_SMALL&#45;&gt;END</title>
<path fill="none" stroke="black" d="M121.24,-87.54C128.73,-76.56 139.71,-62.78 152.5,-54 172.51,-40.26 198.32,-31.57 219.38,-26.28"/>
<polygon fill="black" stroke="black" points="219.96,-29.51 228.9,-23.82 218.37,-22.69 219.96,-29.51"/>
<text text-anchor="middle" x="165.88" y="-56.45" font-family="Times New Roman,serif" font-size="14.00">True</text>
</g>
<!-- PREFIX_IS_SMALL&#45;&gt;END -->
<g id="edge9" class="edge">
<title>PREFIX_IS_SMALL&#45;&gt;END</title>
<path fill="none" stroke="black" d="M146.04,-87.4C156.67,-81.95 168.28,-75.79 178.75,-69.75 196.06,-59.77 214.9,-47.71 229.84,-37.85"/>
<polygon fill="black" stroke="black" points="231.2,-40.49 237.59,-32.04 227.33,-34.66 231.2,-40.49"/>
<text text-anchor="middle" x="218.38" y="-56.45" font-family="Times New Roman,serif" font-size="14.00">False</text>
</g>
<!-- START -->
<g id="node5" class="node">
<title>START</title>
<ellipse fill="none" stroke="black" cx="292.75" cy="-456.75" rx="41.08" ry="18"/>
<text text-anchor="middle" x="292.75" y="-451.32" font-family="Times New Roman,serif" font-size="14.00">START</text>
</g>
<!-- START&#45;&gt;DIMENSION_MATCH -->
<g id="edge1" class="edge">
<title>START&#45;&gt;DIMENSION_MATCH</title>
<path fill="none" stroke="black" d="M292.75,-438.4C292.75,-426.89 292.75,-411.53 292.75,-398.28"/>
<polygon fill="black" stroke="black" points="296.25,-398.33 292.75,-388.33 289.25,-398.33 296.25,-398.33"/>
<text text-anchor="middle" x="307.75" y="-407.45" font-family="Times New Roman,serif" font-size="14.00">None</text>
</g>
</g>
</svg>
