<?xml version="1.0" encoding="UTF-8" standalone="no"?>
<!DOCTYPE svg PUBLIC "-//W3C//DTD SVG 1.1//EN"
 "http://www.w3.org/Graphics/SVG/1.1/DTD/svg11.dtd">
<!-- Generated by graphviz version 8.1.0 (20230707.0739)
 -->
<!-- Title: G Pages: 1 -->
<svg width="470pt" height="483pt"
 viewBox="0.00 0.00 470.38 482.75" xmlns="http://www.w3.org/2000/svg" xmlns:xlink="http://www.w3.org/1999/xlink">
<g id="graph0" class="graph" transform="scale(1 1) rotate(0) translate(4 478.75)">
<title>G</title>
<polygon fill="white" stroke="none" points="-4,4 -4,-478.75 466.38,-478.75 466.38,4 -4,4"/>
<!-- DIMENSION_MATCH -->
<g id="node1" class="node">
<title>DIMENSION_MATCH</title>
<g id="a_node1"><a xlink:title="Dimensions match">
<polygon fill="#ffffcc" stroke="black" points="462.38,-387 117.12,-387 117.12,-351 462.38,-351 462.38,-387"/>
<text text-anchor="middle" x="289.75" y="-363.57" font-family="Times New Roman,serif" font-size="14.00">dimension(QUANTITY) matches dimension(QUANTITY)</text>
</a>
</g>
</g>
<!-- QUANTITY_MATCH -->
<g id="node2" class="node">
<title>QUANTITY_MATCH</title>
<g id="a_node2"><a xlink:title="Quantities match">
<polygon fill="#ffffcc" stroke="black" points="329.38,-299.25 116.12,-299.25 116.12,-263.25 329.38,-263.25 329.38,-299.25"/>
<text text-anchor="middle" x="222.75" y="-275.82" font-family="Times New Roman,serif" font-size="14.00">QUANTITY matches QUANTITY</text>
</a>
</g>
</g>
<!-- DIMENSION_MATCH&#45;&gt;QUANTITY_MATCH -->
<g id="edge2" class="edge">
<title>DIMENSION_MATCH&#45;&gt;QUANTITY_MATCH</title>
<path fill="none" stroke="black" d="M276.19,-350.65C266.66,-338.44 253.73,-321.9 242.98,-308.14"/>
<polygon fill="black" stroke="black" points="245.2,-306.3 236.29,-300.58 239.69,-310.61 245.2,-306.3"/>
<text text-anchor="middle" x="275.88" y="-319.7" font-family="Times New Roman,serif" font-size="14.00">True</text>
</g>
<!-- END -->
<g id="node6" class="node">
<title>END</title>
<ellipse fill="none" stroke="black" cx="257.75" cy="-18" rx="29.11" ry="18"/>
<text text-anchor="middle" x="257.75" y="-12.57" font-family="Times New Roman,serif" font-size="14.00">END</text>
</g>
<!-- DIMENSION_MATCH&#45;&gt;END -->
<g id="edge3" class="edge">
<title>DIMENSION_MATCH&#45;&gt;END</title>
<path fill="none" stroke="black" d="M315.07,-350.73C334.4,-335.29 357.75,-310.75 357.75,-282.25 357.75,-282.25 357.75,-282.25 357.75,-104.75 357.75,-69.46 321.42,-45.56 292.55,-32.14"/>
<polygon fill="black" stroke="black" points="294.29,-28.64 283.73,-27.83 291.48,-35.05 294.29,-28.64"/>
<text text-anchor="middle" x="372.38" y="-188.07" font-family="Times New Roman,serif" font-size="14.00">False</text>
</g>
<!-- PREFIX_IS_LARGE -->
<g id="node3" class="node">
<title>PREFIX_IS_LARGE</title>
<g id="a_node3"><a xlink:title="The response prefix is much larger than the answer prefix">
<polygon fill="#ffffcc" stroke="black" points="283.5,-211.5 62,-211.5 62,-175.5 283.5,-175.5 283.5,-211.5"/>
<text text-anchor="middle" x="172.75" y="-188.07" font-family="Times New Roman,serif" font-size="14.00">unit(response) &gt;= 1000*unit(answer)</text>
</a>
</g>
</g>
<!-- QUANTITY_MATCH&#45;&gt;PREFIX_IS_LARGE -->
<g id="edge4" class="edge">
<title>QUANTITY_MATCH&#45;&gt;PREFIX_IS_LARGE</title>
<path fill="none" stroke="black" d="M212.63,-262.9C205.65,-250.93 196.24,-234.78 188.31,-221.18"/>
<polygon fill="black" stroke="black" points="190.91,-219.7 182.85,-212.83 184.87,-223.23 190.91,-219.7"/>
<text text-anchor="middle" x="215.88" y="-231.95" font-family="Times New Roman,serif" font-size="14.00">True</text>
</g>
<!-- QUANTITY_MATCH&#45;&gt;END -->
<g id="edge5" class="edge">
<title>QUANTITY_MATCH&#45;&gt;END</title>
<path fill="none" stroke="black" d="M248.92,-262.9C264.87,-250.66 283.85,-232.71 292.75,-211.5 316.35,-155.24 289.61,-83.16 271.54,-45.16"/>
<polygon fill="black" stroke="black" points="274.29,-43.81 266.73,-36.39 268.01,-46.91 274.29,-43.81"/>
<text text-anchor="middle" x="317.38" y="-144.2" font-family="Times New Roman,serif" font-size="14.00">False</text>
</g>
<!-- PREFIX_IS_SMALL -->
<g id="node4" class="node">
<title>PREFIX_IS_SMALL</title>
<g id="a_node4"><a xlink:title="The response prefix is much smaller than the answer prefix">
<polygon fill="#ffffcc" stroke="black" points="221.5,-123.75 0,-123.75 0,-87.75 221.5,-87.75 221.5,-123.75"/>
<text text-anchor="middle" x="110.75" y="-100.33" font-family="Times New Roman,serif" font-size="14.00">unit(response)*1000 &lt;= unit(answer)</text>
</a>
</g>
</g>
<!-- PREFIX_IS_LARGE&#45;&gt;PREFIX_IS_SMALL -->
<g id="edge7" class="edge">
<title>PREFIX_IS_LARGE&#45;&gt;PREFIX_IS_SMALL</title>
<path fill="none" stroke="black" d="M160.2,-175.15C151.38,-162.94 139.42,-146.4 129.47,-132.64"/>
<polygon fill="black" stroke="black" points="131.97,-131.13 123.28,-125.08 126.3,-135.23 131.97,-131.13"/>
<text text-anchor="middle" x="162.38" y="-144.2" font-family="Times New Roman,serif" font-size="14.00">False</text>
</g>
<!-- PREFIX_IS_LARGE&#45;&gt;END -->
<g id="edge6" class="edge">
<title>PREFIX_IS_LARGE&#45;&gt;END</title>
<path fill="none" stroke="black" d="M191.23,-175.19C204.08,-162.18 220.65,-143.32 230.75,-123.75 243.31,-99.42 250.32,-68.83 254.03,-47"/>
<polygon fill="black" stroke="black" points="257.64,-47.58 255.72,-37.16 250.72,-46.5 257.64,-47.58"/>
<text text-anchor="middle" x="257.88" y="-100.33" font-family="Times New Roman,serif" font-size="14.00">True</text>
</g>
<!-- PREFIX_IS_SMALL&#45;&gt;END -->
<g id="edge8" class="edge">
<title>PREFIX_IS_SMALL&#45;&gt;END</title>
<path fill="none" stroke="black" d="M121.24,-87.54C128.73,-76.56 139.71,-62.78 152.5,-54 172.51,-40.26 198.32,-31.57 219.38,-26.28"/>
<polygon fill="black" stroke="black" points="219.96,-29.51 228.9,-23.82 218.37,-22.69 219.96,-29.51"/>
<text text-anchor="middle" x="165.88" y="-56.45" font-family="Times New Roman,serif" font-size="14.00">True</text>
</g>
<!-- PREFIX_IS_SMALL&#45;&gt;END -->
<g id="edge9" class="edge">
<title>PREFIX_IS_SMALL&#45;&gt;END</title>
<path fill="none" stroke="black" d="M146.04,-87.4C156.67,-81.95 168.28,-75.79 178.75,-69.75 196.06,-59.77 214.9,-47.71 229.84,-37.85"/>
<polygon fill="black" stroke="black" points="231.2,-40.49 237.59,-32.04 227.33,-34.66 231.2,-40.49"/>
<text text-anchor="middle" x="218.38" y="-56.45" font-family="Times New Roman,serif" font-size="14.00">False</text>
</g>
<!-- START -->
<g id="node5" class="node">
<title>START</title>
<ellipse fill="none" stroke="black" cx="289.75" cy="-456.75" rx="41.08" ry="18"/>
<text text-anchor="middle" x="289.75" y="-451.32" font-family="Times New Roman,serif" font-size="14.00">START</text>
</g>
<!-- START&#45;&gt;DIMENSION_MATCH -->
<g id="edge1" class="edge">
<title>START&#45;&gt;DIMENSION_MATCH</title>
<path fill="none" stroke="black" d="M289.75,-438.4C289.75,-426.89 289.75,-411.53 289.75,-398.28"/>
<polygon fill="black" stroke="black" points="293.25,-398.33 289.75,-388.33 286.25,-398.33 293.25,-398.33"/>
<text text-anchor="middle" x="304.75" y="-407.45" font-family="Times New Roman,serif" font-size="14.00">None</text>
</g>
</g>
</svg>
