<?xml version="1.0" encoding="UTF-8" standalone="no"?>
<!DOCTYPE svg PUBLIC "-//W3C//DTD SVG 1.1//EN"
 "http://www.w3.org/Graphics/SVG/1.1/DTD/svg11.dtd">
<!-- Generated by graphviz version 8.1.0 (20230707.0739)
 -->
<!-- Title: G Pages: 1 -->
<svg width="547pt" height="468pt"
 viewBox="0.00 0.00 547.12 468.00" xmlns="http://www.w3.org/2000/svg" xmlns:xlink="http://www.w3.org/1999/xlink">
<g id="graph0" class="graph" transform="scale(1 1) rotate(0) translate(4 464)">
<title>G</title>
<polygon fill="white" stroke="none" points="-4,4 -4,-464 543.12,-464 543.12,4 -4,4"/>
<!-- DIMENSION_MATCH -->
<g id="node1" class="node">
<title>DIMENSION_MATCH</title>
<g id="a_node1"><a xlink:title="DIMENSION_MATCH">
<polygon fill="#ffffcc" stroke="black" points="539,-387 376.75,-387 376.75,-351 539,-351 539,-387"/>
<text text-anchor="middle" x="457.88" y="-363.57" font-family="Times New Roman,serif" font-size="14.00">Checks dimensions match</text>
</a>
</g>
</g>
<!-- QUANTITY_MATCH -->
<g id="node2" class="node">
<title>QUANTITY_MATCH</title>
<g id="a_node2"><a xlink:title="QUANTITY_MATCH">
<polygon fill="#ffffcc" stroke="black" points="481.75,-299.25 330,-299.25 330,-263.25 481.75,-263.25 481.75,-299.25"/>
<text text-anchor="middle" x="405.88" y="-275.82" font-family="Times New Roman,serif" font-size="14.00">Checks quantities match</text>
</a>
</g>
</g>
<!-- DIMENSION_MATCH&#45;&gt;QUANTITY_MATCH -->
<g id="edge2" class="edge">
<title>DIMENSION_MATCH&#45;&gt;QUANTITY_MATCH</title>
<path fill="none" stroke="black" d="M447.35,-350.65C440.09,-338.68 430.3,-322.53 422.06,-308.93"/>
<polygon fill="black" stroke="black" points="424.56,-307.31 416.38,-300.58 418.57,-310.94 424.56,-307.31"/>
<text text-anchor="middle" x="450" y="-319.7" font-family="Times New Roman,serif" font-size="14.00">True</text>
</g>
<!-- END -->
<g id="node6" class="node">
<title>END</title>
<ellipse fill="none" stroke="black" cx="409.88" cy="-18" rx="29.11" ry="18"/>
<text text-anchor="middle" x="409.88" y="-12.57" font-family="Times New Roman,serif" font-size="14.00">END</text>
</g>
<!-- DIMENSION_MATCH&#45;&gt;END -->
<g id="edge3" class="edge">
<title>DIMENSION_MATCH&#45;&gt;END</title>
<path fill="none" stroke="black" d="M476.06,-350.78C491.06,-334.65 509.88,-309.06 509.88,-282.25 509.88,-282.25 509.88,-282.25 509.88,-104.75 509.88,-69.46 473.54,-45.56 444.68,-32.14"/>
<polygon fill="black" stroke="black" points="446.41,-28.64 435.85,-27.83 443.6,-35.05 446.41,-28.64"/>
<text text-anchor="middle" x="524.5" y="-188.07" font-family="Times New Roman,serif" font-size="14.00">False</text>
</g>
<!-- PREFIX_IS_LARGE -->
<g id="node3" class="node">
<title>PREFIX_IS_LARGE</title>
<g id="a_node3"><a xlink:title="PREFIX_IS_LARGE">
<polygon fill="#ffffcc" stroke="black" points="435.62,-211.5 70.12,-211.5 70.12,-175.5 435.62,-175.5 435.62,-211.5"/>
<text text-anchor="middle" x="252.88" y="-188.07" font-family="Times New Roman,serif" font-size="14.00">Check if prefix is much larger for the response than the answer</text>
</a>
</g>
</g>
<!-- QUANTITY_MATCH&#45;&gt;PREFIX_IS_LARGE -->
<g id="edge4" class="edge">
<title>QUANTITY_MATCH&#45;&gt;PREFIX_IS_LARGE</title>
<path fill="none" stroke="black" d="M374.91,-262.9C351.45,-249.75 319.01,-231.57 293.47,-217.25"/>
<polygon fill="black" stroke="black" points="295.49,-213.81 285.05,-211.97 292.07,-219.92 295.49,-213.81"/>
<text text-anchor="middle" x="357" y="-231.95" font-family="Times New Roman,serif" font-size="14.00">True</text>
</g>
<!-- QUANTITY_MATCH&#45;&gt;END -->
<g id="edge5" class="edge">
<title>QUANTITY_MATCH&#45;&gt;END</title>
<path fill="none" stroke="black" d="M419.04,-262.98C428.29,-249.7 439.87,-230.47 444.88,-211.5 460.26,-153.21 437.49,-83.22 422.07,-45.77"/>
<polygon fill="black" stroke="black" points="424.91,-44.5 417.77,-36.67 418.47,-47.24 424.91,-44.5"/>
<text text-anchor="middle" x="464.5" y="-144.2" font-family="Times New Roman,serif" font-size="14.00">False</text>
</g>
<!-- PREFIX_IS_SMALL -->
<g id="node4" class="node">
<title>PREFIX_IS_SMALL</title>
<g id="a_node4"><a xlink:title="PREFIX_IS_SMALL">
<polygon fill="#ffffcc" stroke="black" points="373.75,-123.75 0,-123.75 0,-87.75 373.75,-87.75 373.75,-123.75"/>
<text text-anchor="middle" x="186.88" y="-100.33" font-family="Times New Roman,serif" font-size="14.00">Check if prefix is much smaller for the response than the answer</text>
</a>
</g>
</g>
<!-- PREFIX_IS_LARGE&#45;&gt;PREFIX_IS_SMALL -->
<g id="edge7" class="edge">
<title>PREFIX_IS_LARGE&#45;&gt;PREFIX_IS_SMALL</title>
<path fill="none" stroke="black" d="M239.52,-175.15C230.13,-162.94 217.39,-146.4 206.8,-132.64"/>
<polygon fill="black" stroke="black" points="209.08,-130.87 200.21,-125.08 203.54,-135.14 209.08,-130.87"/>
<text text-anchor="middle" x="240.5" y="-144.2" font-family="Times New Roman,serif" font-size="14.00">False</text>
</g>
<!-- PREFIX_IS_LARGE&#45;&gt;END -->
<g id="edge6" class="edge">
<title>PREFIX_IS_LARGE&#45;&gt;END</title>
<path fill="none" stroke="black" d="M308.22,-175.13C334.39,-164.27 363.97,-147.7 382.88,-123.75 400.2,-101.81 406.5,-69.97 408.75,-47.16"/>
<polygon fill="black" stroke="black" points="412.29,-47.7 409.57,-37.46 405.31,-47.16 412.29,-47.7"/>
<text text-anchor="middle" x="414" y="-100.33" font-family="Times New Roman,serif" font-size="14.00">True</text>
</g>
<!-- PREFIX_IS_SMALL&#45;&gt;END -->
<g id="edge8" class="edge">
<title>PREFIX_IS_SMALL&#45;&gt;END</title>
<path fill="none" stroke="black" d="M216.84,-87.36C236.04,-76.71 261.77,-63.38 285.62,-54 313.97,-42.86 347.23,-33.68 372.2,-27.52"/>
<polygon fill="black" stroke="black" points="372.8,-30.74 381.7,-24.99 371.16,-23.93 372.8,-30.74"/>
<text text-anchor="middle" x="299" y="-56.45" font-family="Times New Roman,serif" font-size="14.00">True</text>
</g>
<!-- PREFIX_IS_SMALL&#45;&gt;END -->
<g id="edge9" class="edge">
<title>PREFIX_IS_SMALL&#45;&gt;END</title>
<path fill="none" stroke="black" d="M258.77,-87.33C276.37,-82.33 295,-76.4 311.88,-69.75 335.56,-60.42 361.05,-47.1 380.1,-36.46"/>
<polygon fill="black" stroke="black" points="381.45,-39.14 388.43,-31.16 378,-33.05 381.45,-39.14"/>
<text text-anchor="middle" x="360.5" y="-56.45" font-family="Times New Roman,serif" font-size="14.00">False</text>
</g>
<!-- START -->
<g id="node5" class="node">
<title>START</title>
<ellipse fill="none" stroke="black" cx="457.88" cy="-442" rx="41.08" ry="18"/>
<text text-anchor="middle" x="457.88" y="-436.57" font-family="Times New Roman,serif" font-size="14.00">START</text>
</g>
<!-- START&#45;&gt;DIMENSION_MATCH -->
<g id="edge1" class="edge">
<title>START&#45;&gt;DIMENSION_MATCH</title>
<path fill="none" stroke="black" d="M457.88,-423.81C457.88,-416.05 457.88,-406.68 457.88,-397.95"/>
<polygon fill="black" stroke="black" points="461.38,-398.03 457.88,-388.03 454.38,-398.03 461.38,-398.03"/>
</g>
</g>
</svg>
