<?xml version="1.0" encoding="UTF-8" standalone="no"?>
<!DOCTYPE svg PUBLIC "-//W3C//DTD SVG 1.1//EN"
 "http://www.w3.org/Graphics/SVG/1.1/DTD/svg11.dtd">
<!-- Generated by graphviz version 8.1.0 (20230707.0739)
 -->
<!-- Title: neato Pages: 1 -->
<svg width="475pt" height="692pt"
 viewBox="0.00 0.00 474.74 692.00" xmlns="http://www.w3.org/2000/svg" xmlns:xlink="http://www.w3.org/1999/xlink">
<g id="graph0" class="graph" transform="scale(1 1) rotate(0) translate(4 688)">
<title>neato</title>
<polygon fill="white" stroke="none" points="-4,4 -4,-688 470.74,-688 470.74,4 -4,4"/>
<!-- START -->
<g id="node1" class="node">
<title>START</title>
<g id="a_node1"><a xlink:title="START">
<ellipse fill="#4051b5" stroke="#2f3c86" cx="294.11" cy="-666" rx="41.08" ry="18"/>
<text text-anchor="middle" x="294.11" y="-660.58" font-family="Times New Roman,serif" font-size="14.00" fill="#ffffff">START</text>
</a>
</g>
</g>
<!-- DIMENSION_MATCH -->
<g id="node2" class="node">
<title>DIMENSION_MATCH</title>
<g id="a_node2"><a xlink:title="Dimensions match">
<polygon fill="#e5f8fb" stroke="#00b8d4" points="466.74,-612 121.49,-612 121.49,-576 466.74,-576 466.74,-612"/>
<text text-anchor="middle" x="294.11" y="-588.58" font-family="Times New Roman,serif" font-size="14.00" fill="#212121">dimension(QUANTITY) matches dimension(QUANTITY)</text>
</a>
</g>
</g>
<!-- START&#45;&gt;DIMENSION_MATCH -->
<g id="edge1" class="edge">
<title>START&#45;&gt;DIMENSION_MATCH</title>
<path fill="none" stroke="black" d="M294.11,-647.7C294.11,-640.24 294.11,-631.32 294.11,-622.97"/>
<polygon fill="black" stroke="black" points="297.61,-623.1 294.11,-613.1 290.61,-623.1 297.61,-623.1"/>
</g>
<!-- GHOST_NODE_0 -->
<g id="node3" class="node">
<title>GHOST_NODE_0</title>
<ellipse fill="#c5cae9" stroke="black" cx="266.11" cy="-522" rx="28.11" ry="18"/>
<text text-anchor="middle" x="266.11" y="-516.58" font-family="Times New Roman,serif" font-size="14.00">True</text>
</g>
<!-- DIMENSION_MATCH&#45;&gt;GHOST_NODE_0 -->
<g id="edge2" class="edge">
<title>DIMENSION_MATCH&#45;&gt;GHOST_NODE_0:n</title>
<path fill="none" stroke="black" d="M279.45,-575.55C272.68,-565.74 266.11,-552.9 266.11,-540"/>
</g>
<!-- GHOST_NODE_1 -->
<g id="node4" class="node">
<title>GHOST_NODE_1</title>
<ellipse fill="#c5cae9" stroke="black" cx="372.11" cy="-450" rx="30.11" ry="18"/>
<text text-anchor="middle" x="372.11" y="-444.57" font-family="Times New Roman,serif" font-size="14.00">False</text>
</g>
<!-- DIMENSION_MATCH&#45;&gt;GHOST_NODE_1 -->
<g id="edge4" class="edge">
<title>DIMENSION_MATCH&#45;&gt;GHOST_NODE_1:n</title>
<path fill="none" stroke="black" d="M313.79,-575.67C336.9,-553.3 372.11,-512 372.11,-468"/>
</g>
<!-- QUANTITY_MATCH -->
<g id="node6" class="node">
<title>QUANTITY_MATCH</title>
<g id="a_node6"><a xlink:title="Quantities match">
<polygon fill="#e5f8fb" stroke="#00b8d4" points="323.74,-468 110.49,-468 110.49,-432 323.74,-432 323.74,-468"/>
<text text-anchor="middle" x="217.11" y="-444.57" font-family="Times New Roman,serif" font-size="14.00" fill="#212121">QUANTITY matches QUANTITY</text>
</a>
</g>
</g>
<!-- GHOST_NODE_0&#45;&gt;QUANTITY_MATCH -->
<g id="edge3" class="edge">
<title>GHOST_NODE_0:s&#45;&gt;QUANTITY_MATCH</title>
<path fill="none" stroke="black" d="M266.11,-504C266.11,-493.19 260.55,-483.65 253.17,-475.75"/>
<polygon fill="black" stroke="black" points="256.02,-473.69 246.33,-469.41 251.24,-478.8 256.02,-473.69"/>
</g>
<!-- END -->
<g id="node5" class="node">
<title>END</title>
<g id="a_node5"><a xlink:title="END">
<ellipse fill="#4051b5" stroke="#2f3c86" cx="261.11" cy="-18" rx="29.11" ry="18"/>
<text text-anchor="middle" x="261.11" y="-12.57" font-family="Times New Roman,serif" font-size="14.00" fill="#ffffff">END</text>
</a>
</g>
</g>
<!-- GHOST_NODE_1&#45;&gt;END -->
<g id="edge5" class="edge">
<title>GHOST_NODE_1:s&#45;&gt;END</title>
<path fill="none" stroke="black" d="M372.11,-432C372.11,-376.44 372.11,-362.56 372.11,-307 372.11,-307 372.11,-307 372.11,-161 372.11,-107.51 322.62,-62.15 289.74,-37.9"/>
<polygon fill="black" stroke="black" points="292.13,-34.59 281.95,-31.63 288.06,-40.29 292.13,-34.59"/>
</g>
<!-- GHOST_NODE_2 -->
<g id="node7" class="node">
<title>GHOST_NODE_2</title>
<ellipse fill="#c5cae9" stroke="black" cx="186.11" cy="-378" rx="28.11" ry="18"/>
<text text-anchor="middle" x="186.11" y="-372.57" font-family="Times New Roman,serif" font-size="14.00">True</text>
</g>
<!-- QUANTITY_MATCH&#45;&gt;GHOST_NODE_2 -->
<g id="edge6" class="edge">
<title>QUANTITY_MATCH&#45;&gt;GHOST_NODE_2:n</title>
<path fill="none" stroke="black" d="M200.88,-431.8C193.38,-422.07 186.11,-409.22 186.11,-396"/>
</g>
<!-- GHOST_NODE_3 -->
<g id="node8" class="node">
<title>GHOST_NODE_3</title>
<ellipse fill="#c5cae9" stroke="black" cx="314.11" cy="-306" rx="30.11" ry="18"/>
<text text-anchor="middle" x="314.11" y="-300.57" font-family="Times New Roman,serif" font-size="14.00">False</text>
</g>
<!-- QUANTITY_MATCH&#45;&gt;GHOST_NODE_3 -->
<g id="edge8" class="edge">
<title>QUANTITY_MATCH&#45;&gt;GHOST_NODE_3:n</title>
<path fill="none" stroke="black" d="M243.1,-431.59C271.84,-410.03 314.11,-370.42 314.11,-324"/>
</g>
<!-- PREFIX_IS_LARGE -->
<g id="node9" class="node">
<title>PREFIX_IS_LARGE</title>
<g id="a_node9"><a xlink:title="The response prefix is much larger than the answer prefix">
<polygon fill="#e5f8fb" stroke="#00b8d4" points="265.86,-324 44.36,-324 44.36,-288 265.86,-288 265.86,-324"/>
<text text-anchor="middle" x="155.11" y="-300.57" font-family="Times New Roman,serif" font-size="14.00" fill="#212121">unit(response) &gt;= 1000*unit(answer)</text>
</a>
</g>
</g>
<!-- GHOST_NODE_2&#45;&gt;PREFIX_IS_LARGE -->
<g id="edge7" class="edge">
<title>GHOST_NODE_2:s&#45;&gt;PREFIX_IS_LARGE</title>
<path fill="none" stroke="black" d="M186.11,-360C186.11,-350.5 182.35,-341.19 177.45,-333.09"/>
<polygon fill="black" stroke="black" points="179.89,-331.45 171.34,-325.2 174.12,-335.42 179.89,-331.45"/>
</g>
<!-- GHOST_NODE_3&#45;&gt;END -->
<g id="edge9" class="edge">
<title>GHOST_NODE_3:s&#45;&gt;END</title>
<path fill="none" stroke="black" d="M314.11,-288C314.11,-191.8 333.27,-162.31 300.11,-72 296.19,-61.33 289.44,-50.96 282.63,-42.25"/>
<polygon fill="black" stroke="black" points="284.73,-40.3 275.65,-34.85 279.35,-44.77 284.73,-40.3"/>
</g>
<!-- GHOST_NODE_4 -->
<g id="node10" class="node">
<title>GHOST_NODE_4</title>
<ellipse fill="#c5cae9" stroke="black" cx="28.11" cy="-162" rx="28.11" ry="18"/>
<text text-anchor="middle" x="28.11" y="-156.57" font-family="Times New Roman,serif" font-size="14.00">True</text>
</g>
<!-- PREFIX_IS_LARGE&#45;&gt;GHOST_NODE_4 -->
<g id="edge10" class="edge">
<title>PREFIX_IS_LARGE&#45;&gt;GHOST_NODE_4:n</title>
<path fill="none" stroke="black" d="M117.35,-287.65C79.91,-267.54 28.11,-230.58 28.11,-180"/>
</g>
<!-- GHOST_NODE_5 -->
<g id="node11" class="node">
<title>GHOST_NODE_5</title>
<ellipse fill="#c5cae9" stroke="black" cx="165.11" cy="-234" rx="30.11" ry="18"/>
<text text-anchor="middle" x="165.11" y="-228.57" font-family="Times New Roman,serif" font-size="14.00">False</text>
</g>
<!-- PREFIX_IS_LARGE&#45;&gt;GHOST_NODE_5 -->
<g id="edge12" class="edge">
<title>PREFIX_IS_LARGE&#45;&gt;GHOST_NODE_5:n</title>
<path fill="none" stroke="black" d="M159.99,-287.97C162.53,-277.65 165.11,-264.17 165.11,-252"/>
</g>
<!-- GHOST_NODE_4&#45;&gt;END -->
<g id="edge11" class="edge">
<title>GHOST_NODE_4:s&#45;&gt;END</title>
<path fill="none" stroke="black" d="M28.11,-144C28.11,-57.43 154.56,-30.57 221.15,-22.43"/>
<polygon fill="black" stroke="black" points="221.53,-25.8 231.07,-21.2 220.74,-18.84 221.53,-25.8"/>
</g>
<!-- PREFIX_IS_SMALL -->
<g id="node12" class="node">
<title>PREFIX_IS_SMALL</title>
<g id="a_node12"><a xlink:title="The response prefix is much smaller than the answer prefix">
<polygon fill="#e5f8fb" stroke="#00b8d4" points="295.86,-180 74.36,-180 74.36,-144 295.86,-144 295.86,-180"/>
<text text-anchor="middle" x="185.11" y="-156.57" font-family="Times New Roman,serif" font-size="14.00" fill="#212121">unit(response)*1000 &lt;= unit(answer)</text>
</a>
</g>
</g>
<!-- GHOST_NODE_5&#45;&gt;PREFIX_IS_SMALL -->
<g id="edge13" class="edge">
<title>GHOST_NODE_5:s&#45;&gt;PREFIX_IS_SMALL</title>
<path fill="none" stroke="black" d="M165.11,-216C165.11,-207.25 167.53,-198.17 170.68,-190.06"/>
<polygon fill="black" stroke="black" points="174.26,-191.62 175.11,-181.06 167.86,-188.79 174.26,-191.62"/>
</g>
<!-- GHOST_NODE_6 -->
<g id="node13" class="node">
<title>GHOST_NODE_6</title>
<ellipse fill="#c5cae9" stroke="black" cx="185.11" cy="-90" rx="28.11" ry="18"/>
<text text-anchor="middle" x="185.11" y="-84.58" font-family="Times New Roman,serif" font-size="14.00">True</text>
</g>
<!-- PREFIX_IS_SMALL&#45;&gt;GHOST_NODE_6 -->
<g id="edge14" class="edge">
<title>PREFIX_IS_SMALL&#45;&gt;GHOST_NODE_6:n</title>
<path fill="none" stroke="black" d="M185.11,-143.81C185.11,-133.44 185.11,-119.96 185.11,-108"/>
</g>
<!-- GHOST_NODE_7 -->
<g id="node14" class="node">
<title>GHOST_NODE_7</title>
<ellipse fill="#c5cae9" stroke="black" cx="261.11" cy="-90" rx="30.11" ry="18"/>
<text text-anchor="middle" x="261.11" y="-84.58" font-family="Times New Roman,serif" font-size="14.00">False</text>
</g>
<!-- PREFIX_IS_SMALL&#45;&gt;GHOST_NODE_7 -->
<g id="edge16" class="edge">
<title>PREFIX_IS_SMALL&#45;&gt;GHOST_NODE_7:n</title>
<path fill="none" stroke="black" d="M235.8,-143.62C249.74,-135.46 261.11,-123.93 261.11,-108"/>
</g>
<!-- GHOST_NODE_6&#45;&gt;END -->
<g id="edge15" class="edge">
<title>GHOST_NODE_6:s&#45;&gt;END</title>
<path fill="none" stroke="black" d="M185.11,-72C185.11,-51 204.87,-37.64 224.24,-29.58"/>
<polygon fill="black" stroke="black" points="225.39,-32.52 233.53,-25.74 222.94,-25.96 225.39,-32.52"/>
</g>
<!-- GHOST_NODE_7&#45;&gt;END -->
<g id="edge17" class="edge">
<title>GHOST_NODE_7:s&#45;&gt;END</title>
<path fill="none" stroke="black" d="M261.11,-72C261.11,-63.87 261.11,-55.04 261.11,-46.96"/>
<polygon fill="black" stroke="black" points="264.61,-47.19 261.11,-37.19 257.61,-47.19 264.61,-47.19"/>
</g>
</g>
</svg>
