<?xml version="1.0" encoding="UTF-8" standalone="no"?>
<!DOCTYPE svg PUBLIC "-//W3C//DTD SVG 1.1//EN"
 "http://www.w3.org/Graphics/SVG/1.1/DTD/svg11.dtd">
<!-- Generated by graphviz version 8.1.0 (20230707.0739)
 -->
<!-- Title: neato Pages: 1 -->
<svg width="606pt" height="1268pt"
 viewBox="0.00 0.00 606.36 1268.00" xmlns="http://www.w3.org/2000/svg" xmlns:xlink="http://www.w3.org/1999/xlink">
<g id="graph0" class="graph" transform="scale(1 1) rotate(0) translate(4 1264)">
<title>neato</title>
<polygon fill="white" stroke="none" points="-4,4 -4,-1264 602.36,-1264 602.36,4 -4,4"/>
<!-- START -->
<g id="node1" class="node">
<title>START</title>
<g id="a_node1"><a xlink:title="START">
<ellipse fill="#4051b5" stroke="#2f3c86" cx="145.25" cy="-1242" rx="41.08" ry="18"/>
<text text-anchor="middle" x="145.25" y="-1236.58" font-family="Times New Roman,serif" font-size="14.00" fill="#ffffff">START</text>
</a>
</g>
</g>
<!-- MISSING_VALUE -->
<g id="node2" class="node">
<title>MISSING_VALUE</title>
<g id="a_node2"><a xlink:title="MISSING_VALUE">
<polygon fill="#e5f8fb" stroke="#00b8d4" points="290.5,-1188 0,-1188 0,-1152 290.5,-1152 290.5,-1188"/>
<text text-anchor="middle" x="145.25" y="-1164.58" font-family="Times New Roman,serif" font-size="14.00" fill="#212121">not(has(value(response))) and has(value(answer))</text>
</a>
</g>
</g>
<!-- START&#45;&gt;MISSING_VALUE -->
<g id="edge1" class="edge">
<title>START&#45;&gt;MISSING_VALUE</title>
<path fill="none" stroke="black" d="M145.25,-1223.7C145.25,-1216.24 145.25,-1207.32 145.25,-1198.97"/>
<polygon fill="black" stroke="black" points="148.75,-1199.1 145.25,-1189.1 141.75,-1199.1 148.75,-1199.1"/>
</g>
<!-- GHOST_NODE_0 -->
<g id="node3" class="node">
<title>GHOST_NODE_0</title>
<ellipse fill="#c5cae9" stroke="black" cx="54.25" cy="-1026" rx="28.11" ry="18"/>
<text text-anchor="middle" x="54.25" y="-1020.58" font-family="Times New Roman,serif" font-size="14.00">True</text>
</g>
<!-- MISSING_VALUE&#45;&gt;GHOST_NODE_0 -->
<g id="edge2" class="edge">
<title>MISSING_VALUE&#45;&gt;GHOST_NODE_0:n</title>
<path fill="none" stroke="black" d="M121.34,-1151.61C94.38,-1129.78 54.25,-1089.63 54.25,-1044"/>
</g>
<!-- GHOST_NODE_1 -->
<g id="node4" class="node">
<title>GHOST_NODE_1</title>
<ellipse fill="#c5cae9" stroke="black" cx="205.25" cy="-1098" rx="30.11" ry="18"/>
<text text-anchor="middle" x="205.25" y="-1092.58" font-family="Times New Roman,serif" font-size="14.00">False</text>
</g>
<!-- MISSING_VALUE&#45;&gt;GHOST_NODE_1 -->
<g id="edge4" class="edge">
<title>MISSING_VALUE&#45;&gt;GHOST_NODE_1:n</title>
<path fill="none" stroke="black" d="M181.88,-1151.63C194.37,-1143.01 205.25,-1131.15 205.25,-1116"/>
</g>
<!-- END -->
<g id="node26" class="node">
<title>END</title>
<g id="a_node26"><a xlink:title="END">
<ellipse fill="#4051b5" stroke="#2f3c86" cx="233.25" cy="-18" rx="29.11" ry="18"/>
<text text-anchor="middle" x="233.25" y="-12.57" font-family="Times New Roman,serif" font-size="14.00" fill="#ffffff">END</text>
</a>
</g>
</g>
<!-- GHOST_NODE_0&#45;&gt;END -->
<g id="edge3" class="edge">
<title>GHOST_NODE_0:s&#45;&gt;END</title>
<path fill="none" stroke="black" d="M54.25,-1008C54.25,-952.44 54.25,-938.56 54.25,-883 54.25,-883 54.25,-883 54.25,-161 54.25,-88.82 144.69,-47.51 197,-29.65"/>
<polygon fill="black" stroke="black" points="197.81,-32.74 206.22,-26.29 195.63,-26.09 197.81,-32.74"/>
</g>
<!-- MISSING_UNIT -->
<g id="node5" class="node">
<title>MISSING_UNIT</title>
<g id="a_node5"><a xlink:title="MISSING_UNIT">
<polygon fill="#e5f8fb" stroke="#00b8d4" points="374.25,-1044 100.25,-1044 100.25,-1008 374.25,-1008 374.25,-1044"/>
<text text-anchor="middle" x="237.25" y="-1020.58" font-family="Times New Roman,serif" font-size="14.00" fill="#212121">not(has(unit(response))) and has(unit(answer))</text>
</a>
</g>
</g>
<!-- GHOST_NODE_1&#45;&gt;MISSING_UNIT -->
<g id="edge5" class="edge">
<title>GHOST_NODE_1:s&#45;&gt;MISSING_UNIT</title>
<path fill="none" stroke="black" d="M205.25,-1080C205.25,-1070.42 209.13,-1061.09 214.19,-1052.99"/>
<polygon fill="black" stroke="black" points="217.56,-1055.29 220.5,-1045.11 211.85,-1051.23 217.56,-1055.29"/>
</g>
<!-- GHOST_NODE_2 -->
<g id="node6" class="node">
<title>GHOST_NODE_2</title>
<ellipse fill="#c5cae9" stroke="black" cx="110.25" cy="-882" rx="28.11" ry="18"/>
<text text-anchor="middle" x="110.25" y="-876.58" font-family="Times New Roman,serif" font-size="14.00">True</text>
</g>
<!-- MISSING_UNIT&#45;&gt;GHOST_NODE_2 -->
<g id="edge6" class="edge">
<title>MISSING_UNIT&#45;&gt;GHOST_NODE_2:n</title>
<path fill="none" stroke="black" d="M199.49,-1007.65C162.05,-987.54 110.25,-950.58 110.25,-900"/>
</g>
<!-- GHOST_NODE_3 -->
<g id="node7" class="node">
<title>GHOST_NODE_3</title>
<ellipse fill="#c5cae9" stroke="black" cx="269.25" cy="-954" rx="30.11" ry="18"/>
<text text-anchor="middle" x="269.25" y="-948.58" font-family="Times New Roman,serif" font-size="14.00">False</text>
</g>
<!-- MISSING_UNIT&#45;&gt;GHOST_NODE_3 -->
<g id="edge8" class="edge">
<title>MISSING_UNIT&#45;&gt;GHOST_NODE_3:n</title>
<path fill="none" stroke="black" d="M254,-1007.89C261.74,-998.18 269.25,-985.33 269.25,-972"/>
</g>
<!-- GHOST_NODE_2&#45;&gt;END -->
<g id="edge7" class="edge">
<title>GHOST_NODE_2:s&#45;&gt;END</title>
<path fill="none" stroke="black" d="M110.25,-864C110.25,-808.3 101.25,-794.7 101.25,-739 101.25,-739 101.25,-739 101.25,-161 101.25,-102.35 162.4,-57.76 201.45,-35.26"/>
<polygon fill="black" stroke="black" points="202.83,-37.94 209.86,-30.02 199.42,-31.83 202.83,-37.94"/>
</g>
<!-- UNEXPECTED_VALUE -->
<g id="node8" class="node">
<title>UNEXPECTED_VALUE</title>
<g id="a_node8"><a xlink:title="UNEXPECTED_VALUE">
<polygon fill="#e5f8fb" stroke="#00b8d4" points="446.5,-900 156,-900 156,-864 446.5,-864 446.5,-900"/>
<text text-anchor="middle" x="301.25" y="-876.58" font-family="Times New Roman,serif" font-size="14.00" fill="#212121">has(value(response)) and not(has(value(answer)))</text>
</a>
</g>
</g>
<!-- GHOST_NODE_3&#45;&gt;UNEXPECTED_VALUE -->
<g id="edge9" class="edge">
<title>GHOST_NODE_3:s&#45;&gt;UNEXPECTED_VALUE</title>
<path fill="none" stroke="black" d="M269.25,-936C269.25,-926.42 273.13,-917.09 278.19,-908.99"/>
<polygon fill="black" stroke="black" points="281.56,-911.29 284.5,-901.11 275.85,-907.23 281.56,-911.29"/>
</g>
<!-- GHOST_NODE_4 -->
<g id="node9" class="node">
<title>GHOST_NODE_4</title>
<ellipse fill="#c5cae9" stroke="black" cx="157.25" cy="-738" rx="28.11" ry="18"/>
<text text-anchor="middle" x="157.25" y="-732.58" font-family="Times New Roman,serif" font-size="14.00">True</text>
</g>
<!-- UNEXPECTED_VALUE&#45;&gt;GHOST_NODE_4 -->
<g id="edge10" class="edge">
<title>UNEXPECTED_VALUE&#45;&gt;GHOST_NODE_4:n</title>
<path fill="none" stroke="black" d="M255.29,-863.61C213.15,-844.33 157.25,-808.8 157.25,-756"/>
</g>
<!-- GHOST_NODE_5 -->
<g id="node10" class="node">
<title>GHOST_NODE_5</title>
<ellipse fill="#c5cae9" stroke="black" cx="320.25" cy="-810" rx="30.11" ry="18"/>
<text text-anchor="middle" x="320.25" y="-804.58" font-family="Times New Roman,serif" font-size="14.00">False</text>
</g>
<!-- UNEXPECTED_VALUE&#45;&gt;GHOST_NODE_5 -->
<g id="edge12" class="edge">
<title>UNEXPECTED_VALUE&#45;&gt;GHOST_NODE_5:n</title>
<path fill="none" stroke="black" d="M310.75,-863.88C315.5,-853.76 320.25,-840.51 320.25,-828"/>
</g>
<!-- GHOST_NODE_4&#45;&gt;END -->
<g id="edge11" class="edge">
<title>GHOST_NODE_4:s&#45;&gt;END</title>
<path fill="none" stroke="black" d="M157.25,-720C157.25,-663.87 139.25,-651.13 139.25,-595 139.25,-595 139.25,-595 139.25,-161 139.25,-111.16 180,-65.39 207.84,-39.94"/>
<polygon fill="black" stroke="black" points="209.84,-42.96 215.01,-33.71 205.2,-37.72 209.84,-42.96"/>
</g>
<!-- UNEXPECTED_UNIT -->
<g id="node11" class="node">
<title>UNEXPECTED_UNIT</title>
<g id="a_node11"><a xlink:title="UNEXPECTED_UNIT">
<polygon fill="#e5f8fb" stroke="#00b8d4" points="477.25,-756 203.25,-756 203.25,-720 477.25,-720 477.25,-756"/>
<text text-anchor="middle" x="340.25" y="-732.58" font-family="Times New Roman,serif" font-size="14.00" fill="#212121">has(unit(response)) and not(has(unit(answer)))</text>
</a>
</g>
</g>
<!-- GHOST_NODE_5&#45;&gt;UNEXPECTED_UNIT -->
<g id="edge13" class="edge">
<title>GHOST_NODE_5:s&#45;&gt;UNEXPECTED_UNIT</title>
<path fill="none" stroke="black" d="M320.25,-792C320.25,-783.25 322.67,-774.17 325.82,-766.06"/>
<polygon fill="black" stroke="black" points="329.4,-767.62 330.25,-757.06 323,-764.79 329.4,-767.62"/>
</g>
<!-- GHOST_NODE_6 -->
<g id="node12" class="node">
<title>GHOST_NODE_6</title>
<ellipse fill="#c5cae9" stroke="black" cx="195.25" cy="-594" rx="28.11" ry="18"/>
<text text-anchor="middle" x="195.25" y="-588.58" font-family="Times New Roman,serif" font-size="14.00">True</text>
</g>
<!-- UNEXPECTED_UNIT&#45;&gt;GHOST_NODE_6 -->
<g id="edge14" class="edge">
<title>UNEXPECTED_UNIT&#45;&gt;GHOST_NODE_6:n</title>
<path fill="none" stroke="black" d="M293.57,-719.52C251.18,-700.27 195.25,-664.85 195.25,-612"/>
</g>
<!-- GHOST_NODE_7 -->
<g id="node13" class="node">
<title>GHOST_NODE_7</title>
<ellipse fill="#c5cae9" stroke="black" cx="377.25" cy="-666" rx="30.11" ry="18"/>
<text text-anchor="middle" x="377.25" y="-660.58" font-family="Times New Roman,serif" font-size="14.00">False</text>
</g>
<!-- UNEXPECTED_UNIT&#45;&gt;GHOST_NODE_7 -->
<g id="edge16" class="edge">
<title>UNEXPECTED_UNIT&#45;&gt;GHOST_NODE_7:n</title>
<path fill="none" stroke="black" d="M360.05,-719.89C368.85,-710.37 377.25,-697.69 377.25,-684"/>
</g>
<!-- GHOST_NODE_6&#45;&gt;END -->
<g id="edge15" class="edge">
<title>GHOST_NODE_6:s&#45;&gt;END</title>
<path fill="none" stroke="black" d="M195.25,-576C195.25,-519.87 177.25,-507.13 177.25,-451 177.25,-451 177.25,-451 177.25,-161 177.25,-117.57 200.2,-71.56 216.71,-44.06"/>
<polygon fill="black" stroke="black" points="220.16,-46.15 222.45,-35.81 214.21,-42.46 220.16,-46.15"/>
</g>
<!-- DIMENSION_MATCH -->
<g id="node14" class="node">
<title>DIMENSION_MATCH</title>
<g id="a_node14"><a xlink:title="Dimensions match">
<polygon fill="#e5f8fb" stroke="#00b8d4" points="586.88,-612 241.62,-612 241.62,-576 586.88,-576 586.88,-612"/>
<text text-anchor="middle" x="414.25" y="-588.58" font-family="Times New Roman,serif" font-size="14.00" fill="#212121">dimension(QUANTITY) matches dimension(QUANTITY)</text>
</a>
</g>
</g>
<!-- GHOST_NODE_7&#45;&gt;DIMENSION_MATCH -->
<g id="edge17" class="edge">
<title>GHOST_NODE_7:s&#45;&gt;DIMENSION_MATCH</title>
<path fill="none" stroke="black" d="M377.25,-648C377.25,-638.05 381.69,-628.64 387.49,-620.58"/>
<polygon fill="black" stroke="black" points="390.81,-623.06 394.45,-613.11 385.4,-618.61 390.81,-623.06"/>
</g>
<!-- GHOST_NODE_8 -->
<g id="node15" class="node">
<title>GHOST_NODE_8</title>
<ellipse fill="#c5cae9" stroke="black" cx="413.25" cy="-522" rx="28.11" ry="18"/>
<text text-anchor="middle" x="413.25" y="-516.58" font-family="Times New Roman,serif" font-size="14.00">True</text>
</g>
<!-- DIMENSION_MATCH&#45;&gt;GHOST_NODE_8 -->
<g id="edge18" class="edge">
<title>DIMENSION_MATCH&#45;&gt;GHOST_NODE_8:n</title>
<path fill="none" stroke="black" d="M413.76,-575.82C413.51,-565.44 413.25,-551.96 413.25,-540"/>
</g>
<!-- GHOST_NODE_9 -->
<g id="node16" class="node">
<title>GHOST_NODE_9</title>
<ellipse fill="#c5cae9" stroke="black" cx="568.25" cy="-450" rx="30.11" ry="18"/>
<text text-anchor="middle" x="568.25" y="-444.57" font-family="Times New Roman,serif" font-size="14.00">False</text>
</g>
<!-- DIMENSION_MATCH&#45;&gt;GHOST_NODE_9 -->
<g id="edge20" class="edge">
<title>DIMENSION_MATCH&#45;&gt;GHOST_NODE_9:n</title>
<path fill="none" stroke="black" d="M465.53,-575.63C510.33,-556.83 568.25,-522.06 568.25,-468"/>
</g>
<!-- QUANTITY_MATCH -->
<g id="node17" class="node">
<title>QUANTITY_MATCH</title>
<g id="a_node17"><a xlink:title="Quantities match">
<polygon fill="#e5f8fb" stroke="#00b8d4" points="519.88,-468 306.62,-468 306.62,-432 519.88,-432 519.88,-468"/>
<text text-anchor="middle" x="413.25" y="-444.57" font-family="Times New Roman,serif" font-size="14.00" fill="#212121">QUANTITY matches QUANTITY</text>
</a>
</g>
</g>
<!-- GHOST_NODE_8&#45;&gt;QUANTITY_MATCH -->
<g id="edge19" class="edge">
<title>GHOST_NODE_8:s&#45;&gt;QUANTITY_MATCH</title>
<path fill="none" stroke="black" d="M413.25,-504C413.25,-495.87 413.25,-487.04 413.25,-478.96"/>
<polygon fill="black" stroke="black" points="416.75,-479.19 413.25,-469.19 409.75,-479.19 416.75,-479.19"/>
</g>
<!-- GHOST_NODE_9&#45;&gt;END -->
<g id="edge21" class="edge">
<title>GHOST_NODE_9:s&#45;&gt;END</title>
<path fill="none" stroke="black" d="M568.25,-432C568.25,-376.44 568.25,-362.56 568.25,-307 568.25,-307 568.25,-307 568.25,-161 568.25,-34.24 362.42,-18.95 273.44,-18.27"/>
<polygon fill="black" stroke="black" points="273.69,-14.77 263.69,-18.25 273.68,-21.77 273.69,-14.77"/>
</g>
<!-- GHOST_NODE_10 -->
<g id="node18" class="node">
<title>GHOST_NODE_10</title>
<ellipse fill="#c5cae9" stroke="black" cx="378.25" cy="-378" rx="28.11" ry="18"/>
<text text-anchor="middle" x="378.25" y="-372.57" font-family="Times New Roman,serif" font-size="14.00">True</text>
</g>
<!-- QUANTITY_MATCH&#45;&gt;GHOST_NODE_10 -->
<g id="edge22" class="edge">
<title>QUANTITY_MATCH&#45;&gt;GHOST_NODE_10:n</title>
<path fill="none" stroke="black" d="M394.52,-431.7C386.2,-422.12 378.25,-409.45 378.25,-396"/>
</g>
<!-- GHOST_NODE_11 -->
<g id="node19" class="node">
<title>GHOST_NODE_11</title>
<ellipse fill="#c5cae9" stroke="black" cx="510.25" cy="-306" rx="30.11" ry="18"/>
<text text-anchor="middle" x="510.25" y="-300.57" font-family="Times New Roman,serif" font-size="14.00">False</text>
</g>
<!-- QUANTITY_MATCH&#45;&gt;GHOST_NODE_11 -->
<g id="edge24" class="edge">
<title>QUANTITY_MATCH&#45;&gt;GHOST_NODE_11:n</title>
<path fill="none" stroke="black" d="M439.24,-431.59C467.98,-410.03 510.25,-370.42 510.25,-324"/>
</g>
<!-- PREFIX_IS_LARGE -->
<g id="node20" class="node">
<title>PREFIX_IS_LARGE</title>
<g id="a_node20"><a xlink:title="The response prefix is much larger than the answer prefix">
<polygon fill="#e5f8fb" stroke="#00b8d4" points="462,-324 240.5,-324 240.5,-288 462,-288 462,-324"/>
<text text-anchor="middle" x="351.25" y="-300.57" font-family="Times New Roman,serif" font-size="14.00" fill="#212121">unit(response) &gt;= 1000*unit(answer)</text>
</a>
</g>
</g>
<!-- GHOST_NODE_10&#45;&gt;PREFIX_IS_LARGE -->
<g id="edge23" class="edge">
<title>GHOST_NODE_10:s&#45;&gt;PREFIX_IS_LARGE</title>
<path fill="none" stroke="black" d="M378.25,-360C378.25,-350.75 374.94,-341.48 370.65,-333.35"/>
<polygon fill="black" stroke="black" points="373.22,-331.83 365.07,-325.06 367.21,-335.43 373.22,-331.83"/>
</g>
<!-- GHOST_NODE_11&#45;&gt;END -->
<g id="edge25" class="edge">
<title>GHOST_NODE_11:s&#45;&gt;END</title>
<path fill="none" stroke="black" d="M510.25,-288C510.25,-224 538.43,-201.46 510.25,-144 466.76,-55.34 338.79,-29.5 273.12,-22.02"/>
<polygon fill="black" stroke="black" points="273.69,-18.46 263.38,-20.9 272.96,-25.42 273.69,-18.46"/>
</g>
<!-- GHOST_NODE_12 -->
<g id="node21" class="node">
<title>GHOST_NODE_12</title>
<ellipse fill="#c5cae9" stroke="black" cx="233.25" cy="-162" rx="28.11" ry="18"/>
<text text-anchor="middle" x="233.25" y="-156.57" font-family="Times New Roman,serif" font-size="14.00">True</text>
</g>
<!-- PREFIX_IS_LARGE&#45;&gt;GHOST_NODE_12 -->
<g id="edge26" class="edge">
<title>PREFIX_IS_LARGE&#45;&gt;GHOST_NODE_12:n</title>
<path fill="none" stroke="black" d="M317.12,-287.51C282.27,-266.94 233.25,-229.24 233.25,-180"/>
</g>
<!-- GHOST_NODE_13 -->
<g id="node22" class="node">
<title>GHOST_NODE_13</title>
<ellipse fill="#c5cae9" stroke="black" cx="370.25" cy="-234" rx="30.11" ry="18"/>
<text text-anchor="middle" x="370.25" y="-228.57" font-family="Times New Roman,serif" font-size="14.00">False</text>
</g>
<!-- PREFIX_IS_LARGE&#45;&gt;GHOST_NODE_13 -->
<g id="edge28" class="edge">
<title>PREFIX_IS_LARGE&#45;&gt;GHOST_NODE_13:n</title>
<path fill="none" stroke="black" d="M360.75,-287.88C365.5,-277.76 370.25,-264.51 370.25,-252"/>
</g>
<!-- GHOST_NODE_12&#45;&gt;END -->
<g id="edge27" class="edge">
<title>GHOST_NODE_12:s&#45;&gt;END</title>
<path fill="none" stroke="black" d="M233.25,-144C233.25,-110.69 233.25,-72.39 233.25,-47.05"/>
<polygon fill="black" stroke="black" points="236.75,-47.39 233.25,-37.39 229.75,-47.39 236.75,-47.39"/>
</g>
<!-- PREFIX_IS_SMALL -->
<g id="node23" class="node">
<title>PREFIX_IS_SMALL</title>
<g id="a_node23"><a xlink:title="The response prefix is much smaller than the answer prefix">
<polygon fill="#e5f8fb" stroke="#00b8d4" points="501,-180 279.5,-180 279.5,-144 501,-144 501,-180"/>
<text text-anchor="middle" x="390.25" y="-156.57" font-family="Times New Roman,serif" font-size="14.00" fill="#212121">unit(response)*1000 &lt;= unit(answer)</text>
</a>
</g>
</g>
<!-- GHOST_NODE_13&#45;&gt;PREFIX_IS_SMALL -->
<g id="edge29" class="edge">
<title>GHOST_NODE_13:s&#45;&gt;PREFIX_IS_SMALL</title>
<path fill="none" stroke="black" d="M370.25,-216C370.25,-207.25 372.67,-198.17 375.82,-190.06"/>
<polygon fill="black" stroke="black" points="379.4,-191.62 380.25,-181.06 373,-188.79 379.4,-191.62"/>
</g>
<!-- GHOST_NODE_14 -->
<g id="node24" class="node">
<title>GHOST_NODE_14</title>
<ellipse fill="#c5cae9" stroke="black" cx="296.25" cy="-90" rx="28.11" ry="18"/>
<text text-anchor="middle" x="296.25" y="-84.58" font-family="Times New Roman,serif" font-size="14.00">True</text>
</g>
<!-- PREFIX_IS_SMALL&#45;&gt;GHOST_NODE_14 -->
<g id="edge30" class="edge">
<title>PREFIX_IS_SMALL&#45;&gt;GHOST_NODE_14:n</title>
<path fill="none" stroke="black" d="M321.44,-143.51C307.11,-135.64 296.25,-124.3 296.25,-108"/>
</g>
<!-- GHOST_NODE_15 -->
<g id="node25" class="node">
<title>GHOST_NODE_15</title>
<ellipse fill="#c5cae9" stroke="black" cx="378.25" cy="-90" rx="30.11" ry="18"/>
<text text-anchor="middle" x="378.25" y="-84.58" font-family="Times New Roman,serif" font-size="14.00">False</text>
</g>
<!-- PREFIX_IS_SMALL&#45;&gt;GHOST_NODE_15 -->
<g id="edge32" class="edge">
<title>PREFIX_IS_SMALL&#45;&gt;GHOST_NODE_15:n</title>
<path fill="none" stroke="black" d="M384.25,-143.56C381.25,-133.33 378.25,-120.08 378.25,-108"/>
</g>
<!-- GHOST_NODE_14&#45;&gt;END -->
<g id="edge31" class="edge">
<title>GHOST_NODE_14:s&#45;&gt;END</title>
<path fill="none" stroke="black" d="M296.25,-72C296.25,-54.76 282.27,-42.01 267.48,-33.33"/>
<polygon fill="black" stroke="black" points="269.27,-29.79 258.79,-28.22 266,-35.98 269.27,-29.79"/>
</g>
<!-- GHOST_NODE_15&#45;&gt;END -->
<g id="edge33" class="edge">
<title>GHOST_NODE_15:s&#45;&gt;END</title>
<path fill="none" stroke="black" d="M378.25,-72C378.25,-49.38 315.2,-33.55 272.26,-25.38"/>
<polygon fill="black" stroke="black" points="273.02,-21.78 262.55,-23.43 271.76,-28.67 273.02,-21.78"/>
</g>
</g>
</svg>
